inDegrees=yes
name=ik_S50_A04_T01
DataType=double
version=3
OpenSimVersion=4.3-2021-08-27-4bc7ad9
endheader
time	pelvis_tilt	pelvis_list	pelvis_rotation	pelvis_tx	pelvis_ty	pelvis_tz	hip_flexion_r	hip_adduction_r	hip_rotation_r	knee_angle_r	knee_angle_r_beta	ankle_angle_r	subtalar_angle_r	mtp_angle_r	hip_flexion_l	hip_adduction_l	hip_rotation_l	knee_angle_l	knee_angle_l_beta	ankle_angle_l	subtalar_angle_l	mtp_angle_l	lumbar_extension	lumbar_bending	lumbar_rotation	arm_flex_r	arm_add_r	arm_rot_r	elbow_flex_r	pro_sup_r	wrist_flex_r	wrist_dev_r	arm_flex_l	arm_add_l	arm_rot_l	elbow_flex_l	pro_sup_l	wrist_flex_l	wrist_dev_l
12.07999999999983	2.426329303022873	1.953792026834743	24.72319005558478	0	0.9399999999999999	0	7.673148913051882	-5.621243967002823	-5.523600671932439	6.777129903323083	0.1182832306483528	0	0	0	11.68542314380031	-4.761812462465282	-16.72169677349132	13.21446786312388	0.230635973110491	0	0	0	0	0	0	31.33781927342704	-31.33781927342704	4.378262868693258	77.12833215120888	85.62173737678182	0	0	31.33781927342704	-31.33781927342704	4.378262868693258	77.12833215120888	85.62173737666622	0	0
12.09999999999983	3.662029662365693	2.835600588427629	24.57469209306711	0	0.9399999999999999	0	5.345878741990913	-6.17335418122423	-4.767819424608401	5.44294810498112	0.09499736544710652	0	0	0	9.212312046639987	-4.462140997931348	-16.6797434361842	11.84148351980969	0.2066728757413263	0	0	0	0	0	0	31.34405870400913	-31.34405870400913	4.378824552635937	77.13549076817456	85.62117569286789	0	0	31.34405870400913	-31.34405870400913	4.378824552635937	77.13549076817456	85.62117569275236	0	0
12.11999999999983	4.439047248362493	3.438526865476932	24.52318263496546	0	0.9399999999999999	0	2.412895001382036	-6.975003292703487	-4.274355172335406	3.127510464990844	0.05458535500466907	0	0	0	7.300721862064443	-4.317400670534185	-16.71087623137272	10.5400520762054	0.1839586120614485	0	0	0	0	0	0	31.34996527674429	-31.34996527674429	4.379359147910828	77.14230484386769	85.62064109762032	0	0	31.34996527674429	-31.34996527674429	4.379359147910828	77.14230484386769	85.62064109750487	0	0
12.13999999999983	5.205012696813921	4.01588788921164	24.49718132175087	0	0.9399999999999999	0	0.5259185671226189	-7.42470102924609	-4.256532297815554	2.281962911291036	0.03982776621042386	0	0	0	6.36158195268856	-4.103041155979278	-16.71095189377262	10.53896928148441	0.1839397137284439	0	0	0	0	0	0	31.35512387650136	-31.35512387650136	4.379819437681229	77.1481700365828	85.62018080787347	0	0	31.35512387650136	-31.35512387650136	4.379819437681229	77.1481700365828	85.6201808077581	0	0
12.15999999999983	5.953698525340063	4.610884046088367	24.45275834180174	0	0.9399999999999999	0	-1.29939790125873	-7.786678232433861	-4.44928424105388	1.038808123520318	0.0181306220518935	0	0	0	4.501601871610156	-3.891116047314088	-16.69392159529288	9.295045045726271	0.1622291401691103	0	0	0	0	0	0	31.35847404480931	-31.35847404480931	4.380120419516022	77.15200581176057	85.61987982605403	0	0	31.35847404480931	-31.35847404480931	4.380120419516022	77.15200581176057	85.61987982593872	0	0
12.17999999999983	6.650491127596766	5.162678994614377	24.39615641524092	0	0.9399999999999999	0	-2.924070384974705	-7.984020728723261	-4.778726883246683	-0.5798002903551223	-0.01011942407071601	0	0	0	2.849515741253449	-3.655522001892897	-16.57931048709356	7.896347223112616	0.1378172579240264	0	0	0	0	0	0	31.36192539908112	-31.36192539908112	4.380431477340543	77.15597022623955	85.61956876824539	0	0	31.36192539908112	-31.36192539908112	4.380431477340543	77.15597022623955	85.61956876813011	0	0
12.19999999999983	7.277441476391171	5.650543947883465	24.35076657552192	0	0.9399999999999999	0	-4.39422428711789	-8.261770606088517	-5.107671334731747	-1.368024790108122	-0.02387653683629108	0	0	0	0.7980030377592386	-3.496726817863066	-16.12886036162649	6.365612427909389	0.111100895772889	0	0	0	0	0	0	31.36530279941525	-31.36530279941525	4.380737189104938	77.15986682261122	85.61926305649662	0	0	31.36530279941525	-31.36530279941525	4.380737189104938	77.15986682261122	85.6192630563814	0	0
12.21999999999983	7.819047174087415	6.086728296874433	24.30489920389972	0	0.9399999999999999	0	-5.612623270966923	-8.4941876983738	-5.07489520623355	-1.979077828318037	-0.03454142425736881	0	0	0	-0.4436847448933798	-3.238785737189315	-16.16910729488738	5.862767138715078	0.1023245898483052	0	0	0	0	0	0	31.36949479007861	-31.36949479007861	4.381114591821242	77.16467664671408	85.61888565379959	0	0	31.36949479007861	-31.36949479007861	4.381114591821242	77.16467664671408	85.61888565368442	0	0
12.23999999999983	8.387129297104947	6.533802753617771	24.26366307538363	0	0.9399999999999999	0	-6.303324502474594	-8.665927912921497	-5.105851495343646	-1.924217471363141	-0.0335839303996865	0	0	0	-1.123298547484367	-3.069066990987209	-16.14187659083401	5.920029255205367	0.1033240023177213	0	0	0	0	0	0	31.37045364356642	-31.37045364356642	4.381198788290046	77.16574914653106	85.61880145733508	0	0	31.37045364356642	-31.37045364356642	4.381198788290046	77.16574914653106	85.61880145721992	0	0
12.25999999999983	8.898352935232323	6.95879366009764	24.24533909260074	0	0.9399999999999999	0	-7.476906393803746	-8.910364277514841	-5.111774504334057	-2.69834564531817	-0.04709501586765318	0	0	0	-2.815375093062004	-2.720154838781838	-15.91093259635981	4.188984166072719	0.07311156601187789	0	0	0	0	0	0	31.37366026365321	-31.37366026365321	4.381486319587139	77.1694132817933	85.61851392605266	0	0	31.37366026365321	-31.37366026365321	4.381486319587139	77.1694132817933	85.61851392593752	0	0
12.27999999999983	9.121795996731173	7.142998497902851	24.24414220833374	0	0.9399999999999999	0	-7.784288021834841	-8.975286665295735	-5.185358006696219	-2.802969636688438	-0.04892104899364248	0	0	0	-3.566208175702524	-2.593539256254317	-15.7161002642485	3.489554681436935	0.06090421861945636	0	0	0	0	0	0	31.37672151257361	-31.37672151257361	4.381762109461608	77.17292810308003	85.61823813619229	0	0	31.37672151257361	-31.37672151257361	4.381762109461608	77.17292810308003	85.61823813607724	0	0
12.29999999999983	9.509305539930393	7.484108874557357	24.20484777598592	0	0.9399999999999999	0	-9.207763498915934	-9.194972485588762	-4.809090589038402	-3.822227922042977	-0.0667104620013111	0	0	0	-4.64295912656531	-2.420449973805527	-15.61361603065446	2.654006680941396	0.04632115495235399	0	0	0	0	0	0	31.37973426645739	-31.37973426645739	4.382034345650656	77.1763978254688	85.6179659000172	0	0	31.37973426645739	-31.37973426645739	4.382034345650656	77.1763978254688	85.61796589990219	0	0
12.31999999999983	9.821577428906782	7.801717008305343	24.19865588223589	0	0.9399999999999999	0	-9.988552638454859	-9.379802000585912	-4.415123699726085	-4.228694119461302	-0.07380463544432214	0	0	0	-5.592403683124521	-2.266162923677671	-15.62011513081042	1.942348119695105	0.0339003699086005	0	0	0	0	0	0	31.38261254230888	-31.38261254230888	4.382294820112802	77.17971772388142	85.61770542556843	0	0	31.38261254230888	-31.38261254230888	4.382294820112802	77.17971772388142	85.61770542545344	0	0
12.33999999999983	10.09127579192491	8.069918794905377	24.20347996616336	0	0.9399999999999999	0	-10.68345847872583	-9.618608585287369	-4.144979889128056	-4.554825230103534	-0.079496697118215	0	0	0	-6.397957168580269	-2.115838412285623	-15.51044588310492	1.303187741900814	0.02274491686779926	0	0	0	0	0	0	31.38559439027817	-31.38559439027817	4.382564398860777	77.18315357868755	85.61743584683418	0	0	31.38559439027817	-31.38559439027817	4.382564398860777	77.18315357868755	85.6174358467193	0	0
12.35999999999983	10.51905915593369	8.414580021067497	24.26342375386321	0	0.9399999999999999	0	-11.41077809991676	-9.773688197221043	-3.971703665590981	-4.742294041273995	-0.08276864511793908	0	0	0	-7.281731022209109	-1.976052460615093	-15.18995906355184	0.7156020383774985	0.01248961170367017	0	0	0	0	0	0	31.38969126769897	-31.38969126769897	4.382933980466768	77.18786376824879	85.61706626524705	0	0	31.38969126769897	-31.38969126769897	4.382933980466768	77.18786376824879	85.61706626513222	0	0
12.37999999999982	10.64865641708904	8.485328967830052	24.28560393044602	0	0.9399999999999999	0	-11.79038850473328	-9.772350163160986	-3.640372910127546	-4.96684824358772	-0.08668785529750306	0	0	0	-7.708384997452647	-1.966090640402952	-15.06299167367294	0.3566987889781358	0.00622556830554493	0	0	0	0	0	0	31.39146353219799	-31.39146353219799	4.383094029743538	77.18990357504042	85.61690621597845	0	0	31.39146353219799	-31.39146353219799	4.383094029743538	77.18990357504042	85.61690621586371	0	0
12.39999999999982	10.69350452510284	8.526255430772141	24.33040268679479	0	0.9399999999999999	0	-11.88327787784558	-9.792598149481588	-3.747640319818209	-4.965957842562862	-0.08667231486795614	0	0	0	-7.975839290071541	-1.888433629037992	-14.93306563459762	0.04672402195766552	0.0008154880229353899	0	0	0	0	0	0	31.39292798112354	-31.39292798112354	4.383225341179612	77.19157688143805	85.6167749045491	0	0	31.39292798112354	-31.39292798112354	4.383225341179612	77.19157688143805	85.61677490443438	0	0
12.41999999999982	10.72052809806176	8.57698028117802	24.38905999210009	0	0.9399999999999999	0	-12.03067235297837	-9.711788362200334	-4.24158617168329	-4.767329608502398	-0.08320559819617909	0	0	0	-8.132197773903279	-1.790274313247405	-14.80429475244985	-0.1708582343704882	-0.002982038743909161	0	0	0	0	0	0	31.39497134317518	-31.39497134317518	4.383410182659914	77.19393272645519	85.61659006307829	0	0	31.39497134317518	-31.39497134317518	4.383410182659914	77.19393272645519	85.6165900629636	0	0
12.43999999999982	10.63032729327201	8.607356942410652	24.57132338455565	0	0.9399999999999999	0	-11.98175404592086	-9.738073637201493	-4.509392113521944	-4.710167842662932	-0.0822079371760264	0	0	0	-8.062316994208926	-1.750468915933717	-14.62924117723109	-0.1251986252930555	-0.002185128230334469	0	0	0	0	0	0	31.42121199826066	-31.42121199826066	4.385600549686998	77.22176274857162	85.61439969616151	0	0	31.42121199826066	-31.42121199826066	4.385600549686998	77.22176274857162	85.61439969604722	0	0
12.45999999999982	10.59969843021381	8.601568579836032	24.60241485539547	0	0.9399999999999999	0	-11.88528406470032	-9.717756090121949	-4.487508033503501	-4.504536666292558	-0.07861899610361421	0	0	0	-8.056935129625064	-1.732701134689259	-14.65425256171383	-6.939711997848528e-05	-1.211208235026105e-06	0	0	0	0	0	0	31.45256468801639	-31.45256468801639	4.388247905654805	77.25541248773808	85.61175234032729	0	0	31.45256468801639	-31.45256468801639	4.388247905654805	77.25541248773808	85.61175234021351	0	0
12.47999999999982	10.54598505290872	8.581181151342873	24.74084742497182	0	0.9399999999999999	0	-11.79626666397023	-9.660956887090119	-4.676865430909523	-4.454030968531775	-0.07773750538667143	0	0	0	-7.99496396476212	-1.755102804128522	-15.01259344562403	0.04213248247223036	0.0007353505411792201	0	0	0	0	0	0	31.45302996508902	-31.45302996508902	4.388289443391958	77.25594172237379	85.61171080259227	0	0	31.45302996508902	-31.45302996508902	4.388289443391958	77.25594172237379	85.6117108024785	0	0
12.49999999999982	10.42085567188153	8.450259932420572	24.76765892104901	0	0.9399999999999999	0	-11.59021765002146	-9.623691500008443	-4.656868131442883	-4.210245537756082	-0.07348264695124286	0	0	0	-7.726698841554422	-1.838807763354102	-15.48013050356289	0.4319549815049382	0.007539036647652381	0	0	0	0	0	0	31.45533219498975	-31.45533219498975	4.388496829917501	77.25858450645147	85.6115034160774	0	0	31.45533219498975	-31.45533219498975	4.388496829917501	77.25858450645147	85.61150341596363	0	0
